<?xml version="1.0" standalone="no"?><!DOCTYPE svg PUBLIC "-//W3C//DTD SVG 1.1//EN" "http://www.w3.org/Graphics/SVG/1.1/DTD/svg11.dtd"><svg t="1517051516227" class="icon" style="" viewBox="0 0 1024 1024" version="1.1" xmlns="http://www.w3.org/2000/svg" p-id="967" xmlns:xlink="http://www.w3.org/1999/xlink" width="48" height="48"><defs><style type="text/css"></style></defs><path d="M512.208888 96.390206C401.178014 96.390206 296.664059 139.651647 218.178026 218.217169 139.612507 296.701998 96.390808 401.136464 96.390808 512.209489 96.390808 623.281311 139.612507 727.673624 218.178026 806.199403 296.664059 884.804668 401.176812 928.025163 512.208888 928.025163 623.238559 928.025163 727.674225 884.803465 806.23975 806.199403 884.807681 727.674833 928.025765 623.281311 928.025765 512.209489 928.025765 401.136464 884.807681 296.701998 806.23975 218.217169 727.674225 139.651647 623.238559 96.390206 512.208888 96.390206L512.208888 96.390206ZM354.83514 685.405306 354.705015 685.535432 445.176806 776.007223 807.363873 413.820159 716.892081 323.348368 445.306932 594.933515 298.556677 448.183261 208.084886 538.655052 354.83514 685.405306ZM512.208888 0.432187C794.845081 0.432187 1023.984986 229.572093 1023.984986 512.209489 1023.984986 794.84448 794.845081 1023.985587 512.208888 1023.985587 229.572695 1023.985587 0.43279 794.84448 0.43279 512.209489 0.43279 229.572093 229.572695 0.432187 512.208888 0.432187Z" p-id="968" fill="#1296db"></path></svg>